<?xml version="1.0" encoding="iso-8859-1"?>
<!-- Generator: Adobe Illustrator 16.0.0, SVG Export Plug-In . SVG Version: 6.00 Build 0)  -->
<!DOCTYPE svg PUBLIC "-//W3C//DTD SVG 1.1//EN" "http://www.w3.org/Graphics/SVG/1.1/DTD/svg11.dtd">
<svg version="1.1" id="Layer_1" xmlns="http://www.w3.org/2000/svg" xmlns:xlink="http://www.w3.org/1999/xlink" x="0px" y="0px"
	 width="133.032px" height="92.021px" viewBox="0 0 133.032 92.021" style="enable-background:new 0 0 133.032 92.021;"
	 xml:space="preserve">
<g>
	<g>
		<defs>
			<path id="contato_1_" d="M80.018,72.018c0,11.049-17.913,20.004-40.008,20.004C17.914,92.021,0,83.066,0,72.018
				c0-8.57,10.784-15.881,25.934-18.729c-0.265,0.088-0.456,0.18-0.374,0.25c3.659,3.396,8.562,5.475,13.948,5.475
				c5.514,0,10.519-2.176,14.204-5.715c0.005,0.01-0.184-0.066-0.367-0.143C68.883,55.902,80.018,63.307,80.018,72.018
				L80.018,72.018z M27.006,53.014h0.506c-0.53,0.088-1.058,0.18-1.578,0.275C26.367,53.146,27.006,53.014,27.006,53.014
				L27.006,53.014z M40.01,52.012c4.366,0,8.565,0.355,12.498,1.002H27.512C31.446,52.367,35.645,52.012,40.01,52.012L40.01,52.012z
				 M53.013,53.014c0,0,0.164,0.07,0.333,0.143c-0.278-0.049-0.557-0.098-0.838-0.143H53.013L53.013,53.014z"/>
		</defs>
		<use xlink:href="#contato_1_"  style="overflow:visible;fill-rule:evenodd;clip-rule:evenodd;"/>
		<clipPath id="contato_2_">
			<use xlink:href="#contato_1_"  style="overflow:visible;"/>
		</clipPath>
	</g>
	<g>
		<defs>
			<path id="contato_3_" d="M39.509,14.004c11.325,0,20.504,9.181,20.504,20.504c0,11.325-9.179,20.505-20.504,20.505
				c-11.324,0-20.504-9.18-20.504-20.505C19.005,23.185,28.186,14.004,39.509,14.004L39.509,14.004z"/>
		</defs>
		<use xlink:href="#contato_3_"  style="overflow:visible;fill-rule:evenodd;clip-rule:evenodd;"/>
		<clipPath id="contato_4_">
			<use xlink:href="#contato_3_"  style="overflow:visible;"/>
		</clipPath>
	</g>
	<g>
		<defs>
			<path id="contato_5_" d="M133.032,58.014c0,11.049-17.914,20.006-40.012,20.006c-3.844,0-7.564-0.271-11.086-0.779
				c-0.33-0.047-1.127,0.15-0.984-0.148c8.137-17.039-20.685-26.566-25.937-26.078c0.749-0.07,1.984-1.734,2.563-2.285
				c4.534-4.32,12.14-7.703,21.358-9.438c-0.262,0.087-0.443,0.178-0.361,0.246c3.66,3.397,8.563,5.474,13.949,5.474
				c5.514,0,10.518-2.175,14.203-5.715c0.006,0.01-0.178-0.064-0.359-0.141C121.897,41.902,133.032,49.305,133.032,58.014
				L133.032,58.014z M80.018,39.009h0.551c-0.549,0.091-1.098,0.18-1.635,0.282C79.366,39.145,80.018,39.009,80.018,39.009
				L80.018,39.009z M93.02,38.01c4.363,0,8.559,0.354,12.488,0.999H80.569C84.491,38.368,88.67,38.01,93.02,38.01L93.02,38.01z
				 M106.026,39.009c0,0,0.17,0.075,0.34,0.146c-0.283-0.05-0.57-0.099-0.857-0.146H106.026L106.026,39.009z"/>
		</defs>
		<use xlink:href="#contato_5_"  style="overflow:visible;fill-rule:evenodd;clip-rule:evenodd;"/>
		<clipPath id="contato_6_">
			<use xlink:href="#contato_5_"  style="overflow:visible;"/>
		</clipPath>
	</g>
	<g>
		<defs>
			<path id="contato_7_" d="M92.522,0c11.322,0,20.504,9.18,20.504,20.506c0,11.323-9.182,20.504-20.504,20.504
				c-11.324,0-20.504-9.181-20.504-20.504C72.018,9.18,81.198,0,92.522,0L92.522,0z"/>
		</defs>
		<use xlink:href="#contato_7_"  style="overflow:visible;fill-rule:evenodd;clip-rule:evenodd;"/>
		<clipPath id="contato_8_">
			<use xlink:href="#contato_7_"  style="overflow:visible;"/>
		</clipPath>
	</g>
</g>
</svg>
