<svg version="1.1" id="Layer_1" xmlns="http://www.w3.org/2000/svg" 
	 width="67.016px" height="78.018px" viewBox="0 0 67.016 78.018">
<path id="cota_1_" d="M64.016,78.018H3.001C1.344,78.018,0,76.675,0,75.017V3.001C0,1.343,1.344,0,3.001,0h61.015
	c1.656,0,3,1.343,3,3.001v72.016C67.016,76.675,65.672,78.018,64.016,78.018L64.016,78.018z M10.003,63.015h17.003v-2H10.003
	V63.015L10.003,63.015z M38.848,13.577c1.492,0.175,3.381,0.484,5.663,0.925l2.925-3.326c-2.203-0.451-4.315-0.801-6.334-1.048
	c-1.006-0.125-2.036-0.217-3.093-0.279V7.001h-3.001v2.761c-0.091,0-0.178-0.008-0.271-0.008c-0.595,0-1.17,0.01-1.729,0.027
	v-2.78h-3.001v2.976c-2.345,0.241-4.317,0.676-5.907,1.31c-2.566,1.021-3.848,2.424-3.848,4.208c0,0.949,0.39,1.776,1.169,2.484
	c0.78,0.709,1.824,1.331,3.132,1.863c1.231,0.502,3.063,1.023,5.454,1.57v5.459c-0.93-0.062-1.904-0.154-2.922-0.28
	c-2-0.249-4.443-0.676-7.331-1.285v3.975c3.02,0.697,6.453,1.074,10.253,1.171v2.555h3.001v-2.528
	c0.692-0.013,1.352-0.04,2-0.073v2.601h3.001v-2.854c2.136-0.258,3.964-0.665,5.463-1.23c2.779-1.048,4.169-2.484,4.169-4.305
	c0-1.316-0.74-2.427-2.224-3.333c-1.378-0.842-3.855-1.68-7.408-2.519v-5.263C38.291,13.529,38.566,13.543,38.848,13.577
	L38.848,13.577z M58.014,39.009H10.003v2h48.011V39.009L58.014,39.009z M58.014,45.011H10.003v2h48.011V45.011L58.014,45.011z
	 M58.014,49.011H10.003v2h48.011V49.011L58.014,49.011z M58.014,53.013H10.003v2h48.011V53.013L58.014,53.013z M58.014,57.013
	H10.003v2h48.011V57.013L58.014,57.013z M58.014,65.015H10.003v2h48.011V65.015L58.014,65.015z M33.009,17.589v-4.218
	c0.446-0.035,0.916-0.057,1.436-0.057c0.186,0,0.376,0.014,0.563,0.017v4.741C34.233,17.892,33.56,17.729,33.009,17.589
	L33.009,17.589z M35.008,26.835c-0.604,0.063-1.262,0.105-2,0.117v-4.847c0.805,0.191,1.462,0.354,2,0.498V26.835L35.008,26.835z
	 M38.044,23.768c0.468,0.309,0.701,0.661,0.701,1.056c0,0.475-0.259,0.864-0.736,1.181v-2.257
	C38.021,23.753,38.034,23.761,38.044,23.768L38.044,23.768z M29.119,15.357c0-0.484,0.306-0.892,0.889-1.231v2.434
	c-0.125-0.071-0.236-0.144-0.333-0.216C29.305,16.063,29.119,15.734,29.119,15.357L29.119,15.357z"/>
</svg>
