<?xml version="1.0" encoding="iso-8859-1"?>
<!-- Generator: Adobe Illustrator 16.0.0, SVG Export Plug-In . SVG Version: 6.00 Build 0)  -->
<!DOCTYPE svg PUBLIC "-//W3C//DTD SVG 1.1//EN" "http://www.w3.org/Graphics/SVG/1.1/DTD/svg11.dtd">
<svg version="1.1" id="Layer_1" xmlns="http://www.w3.org/2000/svg" xmlns:xlink="http://www.w3.org/1999/xlink" x="0px" y="0px"
	 width="108.023px" height="71.043px" viewBox="0 0 108.023 71.043" style="enable-background:new 0 0 108.023 71.043;"
	 xml:space="preserve">
<g>
	<g>
		<defs>
			<path id="duvidas_1_" d="M58.514,0c28.447,0,46.09,12.707,49.51,23.005c-3.012,14.081-4.088,6.234-6,2
				c-1.678-2.202-6.879-15.258-43.012-19.004C22.322,4.316,8.46,18.608,11.099,15.539C18.945,6.404,37.221,0,58.514,0L58.514,0z"/>
		</defs>
		<use xlink:href="#duvidas_1_"  style="overflow:visible;fill-rule:evenodd;clip-rule:evenodd;"/>
		<clipPath id="duvidas_2_">
			<use xlink:href="#duvidas_1_"  style="overflow:visible;"/>
		</clipPath>
	</g>
	<g>
		<defs>
			<path id="duvidas_3_" d="M93.209,49.523c-0.816,2.02-2.232,4.32-3.592,7.01c-3.412,6.754-34.721,15.043-38.106,14.482
				c-3.385-0.559,20.881-5.416,22.17-12.863c0.033-0.193,0.105-0.398,0.154-0.598c-6.754,1.613-14.326,2.518-22.325,2.518
				C23.062,60.072,0,48.641,0,34.537C0,20.435,23.062,9.002,51.511,9.002c28.45,0,51.512,11.433,51.512,25.534
				C103.023,40.139,99.375,45.314,93.209,49.523L93.209,49.523z M53.51,52.012c1.378,0,2.496-1.119,2.496-2.498
				c0-1.381-1.118-2.5-2.496-2.5c-1.377,0-2.494,1.119-2.494,2.5C51.016,50.893,52.133,52.012,53.51,52.012L53.51,52.012z
				 M63.893,19.62c-4.627-9.327-17.262-2.081-18.882,4.385c-1.347,2.127,0.625,4.825,3.001,3.001c6.918-10.683,16.661-7.44,8.002,4
				c-0.969,1.28-3.688,7.257-4.002,9.001c-0.778,4.314,2.078,6.686,3.225,3.338c0.809-2.361,3.131-6.447,4.727-9.386
				C62.744,28.838,65.959,23.782,63.893,19.62L63.893,19.62z"/>
		</defs>
		<use xlink:href="#duvidas_3_"  style="overflow:visible;fill-rule:evenodd;clip-rule:evenodd;"/>
		<clipPath id="duvidas_4_">
			<use xlink:href="#duvidas_3_"  style="overflow:visible;"/>
		</clipPath>
	</g>
</g>
</svg>
