<?xml version="1.0" encoding="iso-8859-1"?>
<!-- Generator: Adobe Illustrator 16.0.0, SVG Export Plug-In . SVG Version: 6.00 Build 0)  -->
<!DOCTYPE svg PUBLIC "-//W3C//DTD SVG 1.1//EN" "http://www.w3.org/Graphics/SVG/1.1/DTD/svg11.dtd">
<svg version="1.1" id="Layer_1" xmlns="http://www.w3.org/2000/svg" xmlns:xlink="http://www.w3.org/1999/xlink" x="0px" y="0px"
	 width="117.84px" height="108.023px" viewBox="0 0 117.84 108.023" style="enable-background:new 0 0 117.84 108.023;"
	 xml:space="preserve">
<g>
	<path style="fill-rule:evenodd;clip-rule:evenodd;fill:#FFFFFF;" d="M73.439,0.023c3.04,0,6.08,0,9.12,0
		c0.432,0.073,0.86,0.161,1.294,0.217c10.389,1.338,19.455,5.331,26.529,13.276c9.125,10.248,9.814,23.758,1.734,34.808
		c-4.771,6.524-11.213,10.983-18.384,14.473c-9.793,4.767-20.178,7.613-30.901,9.27c-3.987,0.616-7.998,1.106-12.042,1.234
		c-1.478,0.046-1.658,0.307-1.369,1.777c0.208,1.059,0.408,2.123,0.693,3.162c2.805,10.212,11.378,15.667,21.835,13.999
		c4.377-0.698,8.375-2.338,12.212-4.465c1.127-0.625,2.282-1.175,3.614-1.15c1.443,0.026,2.219,0.798,2.26,2.231
		c0.03,1.033-0.258,1.986-0.815,2.841c-4.526,6.934-10.646,11.829-18.512,14.522c-2.783,0.954-5.679,1.302-8.548,1.805
		c-1.92,0-3.84,0-5.76,0c-0.271-0.063-0.54-0.16-0.814-0.185c-5.821-0.501-11.292-2.192-16.372-5.043
		c-12.363-6.938-19.973-17.288-22.192-31.398c-0.214-1.362-0.725-2.08-2.069-2.5c-4.484-1.404-8.682-3.444-12.59-6.067
		C1.428,62.202,0.531,61.54,0,60.503c0-0.479,0-0.96,0-1.439c1.449-1.72,3.323-2.105,5.422-1.666
		c0.976,0.205,1.931,0.513,2.893,0.785c9.252,2.618,18.67,3.604,28.248,2.696c8.787-0.834,17.234-3.034,25.251-6.76
		c6.826-3.172,13.146-7.128,18.496-12.484c1.955-1.958,3.721-4.095,4.437-6.874c0.736-2.856-0.322-4.967-3.044-6.082
		c-1.156-0.473-2.358-0.732-3.617-0.76c-4.81-0.107-9.132,1.457-13.118,3.981c-7.77,4.92-12.595,12.087-15,20.815
		c-0.77,2.793-2.16,3.952-4.826,4.531c-5.756,1.25-11.56,1.566-17.405,1.338c-2.387-0.094-4.791-0.242-7.134-0.839
		c-0.841-0.214-1.192-0.572-1.057-1.508c0.448-3.086,0.933-6.159,1.699-9.189c3.262-12.904,9.237-24.232,19.264-33.198
		c6.879-6.151,14.876-10.157,23.838-12.3C67.348,0.833,70.403,0.497,73.439,0.023z"/>
	<path style="fill-rule:evenodd;clip-rule:evenodd;fill:#FFFFFF;" d="M109.225,77.001c-0.009,4.827-3.702,8.524-8.495,8.505
		c-4.65-0.018-8.379-3.757-8.369-8.394c0.01-4.789,3.813-8.488,8.701-8.467C105.741,68.667,109.234,72.242,109.225,77.001z"/>
</g>
</svg>
