<svg version="1.1" id="Layer_1" xmlns="http://www.w3.org/2000/svg" 
	 width="58px" height="71px" viewBox="0 0 58 71">
	<path id="SVG_ICON_CONNECT" d="M55,21c-0.618,0-1.193-0.188-1.671-0.509l-5.945,4.077C49.666,27.982,51,32.086,51,36.5
		c0,4.677-1.512,8.988-4.05,12.512l6.9,5.218C54.206,54.083,54.594,54,55,54c1.657,0,3,1.343,3,3c0,1.656-1.343,3.001-3,3.001
		c-1.656,0-3.001-1.345-3.001-3.001c0-0.489,0.128-0.944,0.335-1.353l-6.703-4.979c-3.632,4.121-8.806,6.852-14.63,7.256v7.259
		C32.163,65.596,33,66.695,33,68.001c0,1.305-0.837,2.402-1.999,2.815V71H29v-0.184c-1.162-0.413-2.001-1.511-2.001-2.815
		c0-1.306,0.839-2.405,2.001-2.817v-7.209c-5.859-0.135-11.138-2.611-14.938-6.529l-8.064,5.53C5.998,56.983,6,56.991,6,57
		C6,58.656,4.656,60.001,3,60.001S0,58.656,0,57c0-1.657,1.343-3,3-3c0.898,0,1.698,0.403,2.248,1.028l7.411-5.188
		C9.746,46.176,8,41.546,8,36.5c0-4.661,1.501-8.958,4.022-12.476l-7.375-5.521C4.173,18.815,3.609,18.999,3,18.999
		c-1.657,0-3-1.343-3-3s1.343-3,3-3S6,14.343,6,16c0,0.308-0.06,0.6-0.146,0.879l7.48,5.492c3.84-4.382,9.414-7.202,15.666-7.347
		V5.817C27.838,5.404,26.999,4.305,26.999,3c0-1.657,1.345-3,3.001-3c1.657,0,3,1.343,3,3c0,1.305-0.837,2.404-1.999,2.817v9.269
		c6.082,0.423,11.477,3.342,15.122,7.78l6.007-4.038c-0.075-0.264-0.131-0.539-0.131-0.828c0-1.657,1.345-3.001,3.001-3.001
		c1.329,0,2.442,0.87,2.837,2.067L58,17.291l-0.077,0.053C57.97,17.556,58,17.774,58,18C58,19.657,56.657,21,55,21L55,21z
		 M29.499,26.728c-5.396,0-9.771,4.375-9.771,9.772c0,5.398,4.375,9.773,9.771,9.773c5.398,0,9.773-4.375,9.773-9.773
		C39.272,31.103,34.897,26.728,29.499,26.728L29.499,26.728z"/>
</svg>
