<?xml version="1.0" encoding="iso-8859-1"?>
<!-- Generator: Adobe Illustrator 16.0.0, SVG Export Plug-In . SVG Version: 6.00 Build 0)  -->
<!DOCTYPE svg PUBLIC "-//W3C//DTD SVG 1.1//EN" "http://www.w3.org/Graphics/SVG/1.1/DTD/svg11.dtd">
<svg version="1.1" id="Layer_1" xmlns="http://www.w3.org/2000/svg" xmlns:xlink="http://www.w3.org/1999/xlink" x="0px" y="0px"
	 width="74px" height="70px" viewBox="0 0 74 70" style="enable-background:new 0 0 74 70;" xml:space="preserve">
<g>
	<g>
		<defs>
			<path id="SVG_FALE_CONOSCO_1_" d="M54.815,56.139C54.815,63.794,42.543,70,27.407,70C12.271,70,0,63.794,0,56.139
				c0-5.922,7.358-10.963,17.689-12.948c-0.137,0.052-0.228,0.104-0.179,0.145c2.505,2.354,5.863,3.794,9.554,3.794
				c3.776,0,7.206-1.509,9.729-3.961c0.003,0.006-0.09-0.033-0.192-0.075C47.208,45.006,54.815,50.116,54.815,56.139L54.815,56.139z
				 M18.499,42.97h0.375c-0.402,0.067-0.791,0.145-1.185,0.221C17.979,43.08,18.499,42.97,18.499,42.97L18.499,42.97z
				 M27.407,42.276c2.982,0,5.845,0.249,8.533,0.693H18.875C21.561,42.525,24.425,42.276,27.407,42.276L27.407,42.276z
				 M36.314,42.97c0,0,0.152,0.066,0.288,0.123c-0.222-0.039-0.438-0.085-0.662-0.123H36.314L36.314,42.97z"/>
		</defs>
		<use xlink:href="#SVG_FALE_CONOSCO_1_"  style="overflow:visible;fill-rule:evenodd;clip-rule:evenodd;"/>
		<clipPath id="SVG_FALE_CONOSCO_2_">
			<use xlink:href="#SVG_FALE_CONOSCO_1_"  style="overflow:visible;"/>
		</clipPath>
	</g>
	<g>
		<defs>
			<path id="SVG_FALE_CONOSCO_3_" d="M27.065,15.941c7.757,0,14.047,6.36,14.047,14.207c0,7.847-6.29,14.208-14.047,14.208
				c-7.759,0-14.047-6.361-14.047-14.208C13.018,22.301,19.306,15.941,27.065,15.941L27.065,15.941z"/>
		</defs>
		<use xlink:href="#SVG_FALE_CONOSCO_3_"  style="overflow:visible;fill-rule:evenodd;clip-rule:evenodd;"/>
		<clipPath id="SVG_FALE_CONOSCO_4_">
			<use xlink:href="#SVG_FALE_CONOSCO_3_"  style="overflow:visible;"/>
		</clipPath>
	</g>
	<g>
		<defs>
			<path id="SVG_FALE_CONOSCO_5_" d="M70.35,15.38c-0.303,0.771-0.833,1.651-1.344,2.681c-1.271,2.567-12.931,5.717-14.191,5.503
				c-1.261-0.212,7.776-2.058,8.256-4.887c0.013-0.079,0.041-0.161,0.06-0.241c-2.519,0.615-5.332,0.97-8.315,0.97
				c-10.597,0-19.186-4.345-19.186-9.702C35.629,4.345,44.218,0,54.815,0C65.41,0,74,4.345,74,9.704
				C74,11.826,72.636,13.783,70.35,15.38L70.35,15.38z M48.991,8.317c-0.946,0-1.714,0.775-1.714,1.732
				c0,0.957,0.768,1.732,1.714,1.732s1.712-0.775,1.712-1.732C50.703,9.092,49.937,8.317,48.991,8.317L48.991,8.317z M54.472,8.317
				c-0.946,0-1.714,0.775-1.714,1.732c0,0.957,0.768,1.732,1.714,1.732s1.712-0.775,1.712-1.732
				C56.184,9.092,55.418,8.317,54.472,8.317L54.472,8.317z M59.954,8.317c-0.946,0-1.714,0.775-1.714,1.732
				c0,0.957,0.768,1.732,1.714,1.732s1.712-0.775,1.712-1.732C61.666,9.092,60.9,8.317,59.954,8.317L59.954,8.317z"/>
		</defs>
		<use xlink:href="#SVG_FALE_CONOSCO_5_"  style="overflow:visible;fill-rule:evenodd;clip-rule:evenodd;"/>
		<clipPath id="SVG_FALE_CONOSCO_6_">
			<use xlink:href="#SVG_FALE_CONOSCO_5_"  style="overflow:visible;"/>
		</clipPath>
	</g>
</g>
</svg>
