<?xml version="1.0" encoding="iso-8859-1"?>
<!-- Generator: Adobe Illustrator 16.0.0, SVG Export Plug-In . SVG Version: 6.00 Build 0)  -->
<!DOCTYPE svg PUBLIC "-//W3C//DTD SVG 1.1//EN" "http://www.w3.org/Graphics/SVG/1.1/DTD/svg11.dtd">
<svg version="1.1" id="Layer_1" xmlns="http://www.w3.org/2000/svg" xmlns:xlink="http://www.w3.org/1999/xlink" x="0px" y="0px"
	 width="133.005px" height="103px" viewBox="0 0 133.005 103" style="enable-background:new 0 0 133.005 103;" xml:space="preserve"
	>
<g>
	<g>
		<defs>
			<path id="SVG_ICO_LEIS" d="M93.128,24.965L61.973,6.847c1.879-3.277,3.183-5.551,3.427-5.978
				c2.828-4.933,34.396,12.461,31.154,18.119C96.348,19.345,95.036,21.633,93.128,24.965L93.128,24.965z M86.272,36.921
				l46.732,27.179l-3.854,6.726L82.42,43.645c-2.021,3.528-3.954,6.901-5.567,9.716L45.7,35.241l-1.284,2.242l31.153,18.12
				l0.219-0.38c-0.128,0.223-0.264,0.458-0.385,0.671l51.528,38.851l-95.913,8.246L-0.002,52.039l51.195,1.919
				c-6.337-4.062-11.241-8.688-9.776-11.245c2.441-4.26,12.993-22.67,19.272-33.625l31.153,18.118
				C90.2,30.07,88.268,33.44,86.272,36.921L86.272,36.921z M73.225,59.694c-0.397,0.696-0.632,1.102-0.653,1.139
				c-0.008,0.015-0.024,0.024-0.032,0.039l2.225,0.046L73.225,59.694L73.225,59.694z M39.702,92.684l70.342-4.343l-5.331-4.218
				L35.93,87.421L39.702,92.684L39.702,92.684z M30.048,79.214l66.206-1.784l-4.511-3.569l-64.781,1.048L30.048,79.214
				L30.048,79.214z M22.346,68.468l61.888-0.022l-3.531-2.808l-60.715-0.46L22.346,68.468L22.346,68.468z M14.053,56.898
				l2.016,2.811l48.757,1.005c-1.928-0.646-4.06-1.545-6.238-2.605L14.053,56.898L14.053,56.898z M76.368,54.207
				c0.155-0.271,0.321-0.562,0.484-0.846l0,0L76.368,54.207L76.368,54.207z"/>
		</defs>
		<use xlink:href="#SVG_ICO_LEIS"  style="overflow:visible;fill-rule:evenodd;clip-rule:evenodd;fill:#010101;"/>
		<clipPath id="SVGID_2_">
			<use xlink:href="#SVG_ICO_LEIS"  style="overflow:visible;"/>
		</clipPath>
	</g>
</g>
</svg>
