<?xml version="1.0" encoding="iso-8859-1"?>
<!-- Generator: Adobe Illustrator 16.0.0, SVG Export Plug-In . SVG Version: 6.00 Build 0)  -->
<!DOCTYPE svg PUBLIC "-//W3C//DTD SVG 1.1//EN" "http://www.w3.org/Graphics/SVG/1.1/DTD/svg11.dtd">
<svg version="1.1" id="Layer_1" xmlns="http://www.w3.org/2000/svg" xmlns:xlink="http://www.w3.org/1999/xlink" x="0px" y="0px"
	 width="129px" height="98px" viewBox="0 0 129 98" style="enable-background:new 0 0 129 98;" xml:space="preserve">
<g>
	<g>
		<defs>
			<path id="SVGID_1_" d="M5.16,87.684V0h12.9v87.684H5.16L5.16,87.684z M0,46.42V36.106h5.16V46.42H0L0,46.42z M0,98V87.473
				c0,0,59.565-4.072,129-3.656C129,85.379,129,98,129,98H0L0,98z M68.369,86.395c-17.911-1.387-31.114-18.604-32.249-25.789
				c1.766,0,92.879,0,92.879,0v25.789C129,86.395,75.813,86.395,68.369,86.395L68.369,86.395z"/>
		</defs>
		<use xlink:href="#SVGID_1_"  style="overflow:visible;fill:#010101;"/>
		<clipPath id="SVGID_2_">
			<use xlink:href="#SVGID_1_"  style="overflow:visible;"/>
		</clipPath>
	</g>
</g>
</svg>
