<?xml version="1.0" encoding="iso-8859-1"?>
<!-- Generator: Adobe Illustrator 16.0.0, SVG Export Plug-In . SVG Version: 6.00 Build 0)  -->
<!DOCTYPE svg PUBLIC "-//W3C//DTD SVG 1.1//EN" "http://www.w3.org/Graphics/SVG/1.1/DTD/svg11.dtd">
<svg version="1.1" id="Layer_1" xmlns="http://www.w3.org/2000/svg" xmlns:xlink="http://www.w3.org/1999/xlink" x="0px" y="0px"
	 width="119.028px" height="107.024px" viewBox="0 0 119.028 107.024" style="enable-background:new 0 0 119.028 107.024;"
	 xml:space="preserve">
<g>
	<g>
		<defs>
			<path id="legislacao_1_" d="M71.747,29.629L35.364,8.625c2.195-3.8,3.716-6.437,4.002-6.931C42.667-4.024,79.534,16.14,75.747,22.7
				C75.507,23.114,73.975,25.77,71.747,29.629L71.747,29.629z M63.746,43.49l54.571,31.506l-4.502,7.797L59.243,51.287
				c-2.358,4.084-4.619,7.999-6.502,11.26L16.36,41.541c5.058-8.762,12.459-21.583,17.503-30.317l36.382,21.005
				C68.329,35.548,66.075,39.456,63.746,43.49L63.746,43.49z M50.012,67.271v-0.256c0,0-0.222,0.514-0.551,1.209
				c-0.199,0.344-0.386,0.67-0.554,0.961c0.019,0.014,0.042,0.031,0.061,0.045c-0.638,1.248-1.427,2.592-1.955,2.787
				c-1.681,0.547-3.501,0.305-5.002,0c-8.314-1.916-16.003-7.002-16.003-7.002v0.172c-8.862-5.09-16.603-11.598-14.648-14.984
				c0.686-1.186,1.921-3.329,3.501-6.063l36.381,21.004C50.792,65.92,50.384,66.625,50.012,67.271L50.012,67.271z M44.011,74.018
				c5.058,0.631,6.001-4.002,6.001-4.002v-0.002c9.342,6.998,31.897,23.898,32.007,24.008H29.008L3.001,67.016h23.006
				C26.007,67.016,37.301,73.18,44.011,74.018L44.011,74.018z M27.006,101.023c0,2.832,1.001,6,1.001,6L1.001,74.018
				c0,0-1.001-1.104-1.001-3.002c0-2.094,1.001-4,1.001-4l27.006,29.006C28.007,96.021,27.006,98.359,27.006,101.023L27.006,101.023
				z M81.551,96.021c-1.6,7.984,1.469,11.002,1.469,11.002H30.007c0,0-1-3.246-1-6c0-2.748,1-5.002,1-5.002H81.551L81.551,96.021z"
				/>
		</defs>
		<use xlink:href="#legislacao_1_"  style="overflow:visible;fill-rule:evenodd;clip-rule:evenodd;"/>
		<clipPath id="legislacao_2_">
			<use xlink:href="#legislacao_1_"  style="overflow:visible;"/>
		</clipPath>
	</g>
</g>
</svg>
