<svg version="1.1" id="Layer_1" xmlns="http://www.w3.org/2000/svg" 
	 width="147.668px" height="58.794px" viewBox="0 0 147.668 58.794">
	<path id="relatorios_1_" d="M145.787,49.495c-14.854,1.27-92.88,7.927-107.279,9.155c-1.663,0.261-2.494-0.086-2.943-0.875
		C30.803,50.018,1.75,2.699,1.065,1.524c-0.746-1.28-0.375-1.45,1.008-1.667c12.054,0.448,67.857-0.29,77.898,0.083
		c0.809,0.176,1.877,0.407,2.547,0.907l64.4,47.458C147.707,49.082,147.123,49.324,145.787,49.495L145.787,49.495z M15.308,5.287
		l15.955,20.225h6.785L21.303,5.396L15.308,5.287L15.308,5.287z M30.137,10.192l13.28,15.319h6.639L36.198,10.277L30.137,10.192
		L30.137,10.192z M43.317,12.801l11.99,12.71h6.494l-12.45-12.64L43.317,12.801L43.317,12.801z M61.806,14.66l-5.974-0.061
		l11.109,10.912h6.355L61.806,14.66L61.806,14.66z M74.303,16.453l-5.916-0.05l9.941,9.109h6.221L74.303,16.453L74.303,16.453z
		 M79.98,17.349l9.492,8.163h6.09l-9.756-8.119L79.98,17.349L79.98,17.349z M98.309,19.187l-5.766-0.036l7.842,6.36h5.965
		L98.309,19.187L98.309,19.187z M109.023,27.787l-76.016,1.002l2.083,2.495l77.315-2.069L109.023,27.787L109.023,27.787z
		 M125.029,39.79L43.96,43.798l2.404,3.101l82.143-5.034L125.029,39.79L125.029,39.79z"/>
</svg>
